PathFileType	4	(X/Y/Z)	c:\Git\powerlifing_model_clean\simulations\HC835B\Session1\HC835B_OGR_0003\marker_experimental.trc
DataRate	CameraRate	NumFrames	NumMarkers	Units	OrigDataRate	OrigDataStartFrame	OrigNumFrames
240.000000	240.000000	4	38	mm	240.000000	26	215
Frame#	Time	RPSI			LPSI			RASI			LASI			RTH1			RTH2			RTH3			RTH4			RSK1			RSK2			RSK3			RSK4			RCAL1			RCAL2			RCAL3			RST			RPT			RTN			RFMB			RSMB			RVMB			RFMH			RSMH			RVMH			RPM			LTH1			LTH2			LTH3			LTH4			LSK1			LSK2			LSK3			LSK4			LCAL1			LCAL2			LCAL3			LFMH			LVMH			
		X1	Y1	Z1	X2	Y2	Z2	X3	Y3	Z3	X4	Y4	Z4	X5	Y5	Z5	X6	Y6	Z6	X7	Y7	Z7	X8	Y8	Z8	X9	Y9	Z9	X10	Y10	Z10	X11	Y11	Z11	X12	Y12	Z12	X13	Y13	Z13	X14	Y14	Z14	X15	Y15	Z15	X16	Y16	Z16	X17	Y17	Z17	X18	Y18	Z18	X19	Y19	Z19	X20	Y20	Z20	X21	Y21	Z21	X22	Y22	Z22	X23	Y23	Z23	X24	Y24	Z24	X25	Y25	Z25	X26	Y26	Z26	X27	Y27	Z27	X28	Y28	Z28	X29	Y29	Z29	X30	Y30	Z30	X31	Y31	Z31	X32	Y32	Z32	X33	Y33	Z33	X34	Y34	Z34	X35	Y35	Z35	X36	Y36	Z36	X37	Y37	Z37	X38	Y38	Z38	

27	0.1083333333333333	481.864959716797	1117.12939453125	-45.34590148925782	371.1916809082032	1113.694213867188	-56.19297027587892	554.8279418945314	1065.71826171875	-246.3189392089844	319.1622314453126	1050.50341796875	-257.3202514648438	620.5643310546876	795.7454833984377	-226.4432220458985	614.4711303710939	800.3689575195315	-286.8376159667969	604.8993530273439	724.7366943359376	-269.1737365722657	588.7991333007814	729.1348266601564	-325.3799133300782	521.4995117187501	293.4107055664063	-227.7437133789063	520.3408813476564	273.2546997070313	-286.2095031738282	511.0113220214845	236.4701538085938	-238.3839721679688	497.3877258300782	219.8333435058594	-294.5271606445313	432.6682434082032	96.23563385009768	-166.887435913086	401.4400939941407	59.3263626098633	-174.9470977783203	465.3259277343751	60.15267944335939	-166.3545837402344	392.5557250976564	73.24902343750001	-245.6491088867188	493.0201721191407	69.77579498291017	-224.5935211181641	412.0223693847657	91.39779663085939	-299.7292175292969	417.9470520019532	75.04209136962892	-331.1607360839844	467.056365966797	97.0104675292969	-337.6824645996094	506.9886474609376	43.99296569824219	-265.9367065429688	420.0326232910157	48.97169494628908	-386.9851379394532	475.6391601562501	60.83992767333986	-396.2538146972657	533.6325683593751	38.09294891357423	-342.0231628417969	468.497772216797	47.34951400756837	-454.7944946289064	239.9066925048829	767.6627807617189	-119.4385375976563	241.8881225585938	749.3803710937501	-177.4309844970703	241.034652709961	682.8013305664064	-130.9452209472657	255.277572631836	665.1102905273439	-186.8367462158203	299.3344116210938	583.1638793945314	184.0850067138672	286.3166809082032	534.4641113281251	201.6354675292969	301.3033752441407	565.4243774414064	237.4318542480469	303.3036804199219	512.1568603515626	252.0049438476563	380.4322509765626	613.1940917968751	355.6439208984376	360.6976928710938	627.4532470703126	396.753875732422	416.8577575683595	611.0476684570314	386.8056030273439	387.5139160156251	397.8163452148439	435.5091857910157	296.9131469726563	461.4351806640626	473.7484130859376	
28	0.1125	479.9609985351564	1114.224609375	-57.80015945434572	370.4685058593751	1107.767211914063	-67.26853179931642	555.0453491210939	1061.98583984375	-259.2131042480469	320.0584716796876	1045.283569335938	-269.1030883789063	620.1871337890626	793.6781005859377	-239.0191650390626	614.8599853515626	798.2543945312502	-299.5153808593751	604.1461181640626	722.7818603515626	-281.9049072265626	588.4251708984376	727.3588256835939	-338.0953674316407	520.5259399414064	293.9553222656251	-233.7052154541016	519.9702758789064	272.2707214355469	-291.5491943359376	510.2613830566407	236.6848144531251	-242.9666595458985	497.1289062500001	218.6631317138672	-298.7558593750001	432.2386169433595	97.161491394043	-167.7862548828125	401.0338745117189	59.80097961425783	-175.5930633544922	464.9151916503907	61.16986465454103	-167.0181121826172	391.862030029297	72.72349548339845	-246.1906890869141	492.2808837890626	70.45374298095705	-225.5678253173829	410.713104248047	90.48855590820314	-300.7827758789063	416.7391967773439	74.08623504638673	-332.0888366699219	465.642791748047	96.63385772705081	-338.8332519531251	506.2195739746095	44.69051361083985	-266.5419311523438	419.127655029297	48.075008392334	-387.8487243652345	474.528533935547	60.09556579589845	-397.2764892578126	533.0558471679689	38.50749206542969	-342.4894409179688	468.0300598144532	45.21854400634766	-455.836883544922	238.8493804931641	764.1130371093751	-136.5408020019532	240.9120025634766	746.5462036132814	-194.828109741211	239.6135559082032	679.3236694335939	-149.179931640625	254.0823059082032	662.5446777343751	-205.4643096923829	298.5975952148438	582.5844726562501	161.065414428711	285.3271484375001	534.3413696289064	179.3830261230469	300.5061645507813	565.7370605468751	214.7568664550782	302.3452453613282	512.4335937500001	230.0653533935547	379.6409912109376	614.9389648437501	333.0860900878907	359.5035400390626	629.2602539062501	374.0220336914063	415.4715270996095	612.7879028320314	364.5876159667969	386.7275695800782	399.8696594238282	414.0119628906251	295.6850891113282	463.5848999023439	451.5005493164064	
29	0.1166666666666667	478.4814453125001	1112.436401367188	-70.34851837158205	370.5691833496094	1103.362670898438	-79.43190002441408	555.5515136718751	1058.45751953125	-272.1955871582032	321.1406250000001	1039.981811523438	-280.7804260253907	619.9423828125001	791.4605102539065	-251.4567871093751	615.1877441406251	795.9582519531252	-312.0246887207032	603.4421997070314	720.7303466796876	-294.4230957031251	587.7868041992189	725.5020751953126	-350.5744323730469	519.6801757812501	294.5966186523438	-239.1197814941407	519.3531494140626	271.3239135742188	-296.3849182128907	509.4039306640626	237.0529022216797	-246.9389953613282	496.7254638671876	217.4178466796876	-302.2680969238282	431.8833007812501	97.4667663574219	-168.2234039306641	400.8909912109376	60.11410140991212	-175.8281402587891	464.797821044922	61.66918182373048	-167.2158813476563	391.5930786132814	72.7271194458008	-246.3598632812501	492.0632934570314	70.76168060302736	-225.8575439453126	410.1314086914064	89.97830200195314	-301.2862854003907	416.3928527832032	73.74526214599611	-332.4673767089844	465.2989501953126	96.35608673095706	-339.1823120117188	506.1850585937501	44.92551040649415	-266.6595764160157	419.1647033691407	47.67938995361329	-388.1040954589845	474.374481201172	59.64258575439455	-397.5738525390626	531.8881835937501	39.28161239624024	-342.6033020019532	468.011688232422	44.02241134643555	-456.2704467773439	237.939926147461	761.0245971679689	-153.7885894775391	240.0409851074219	744.3062744140626	-212.2963409423829	238.3741912841797	676.3800048828126	-167.6929168701172	252.9293212890626	660.3176879882814	-224.2760620117188	297.6792602539063	581.7047729492189	137.9121398925782	284.2050781250001	533.7143554687501	156.9991760253907	299.6817016601563	565.8364868164064	191.8870544433594	301.2174682617188	512.5519409179689	208.0426635742188	378.6852416992188	616.2903442382814	310.4361572265626	358.0692138671876	630.6078491210939	351.2729492187501	414.2247924804689	614.3227539062501	342.1915283203126	386.0078430175782	401.476531982422	392.2593994140626	294.5389099121094	464.9782104492189	428.9126586914064	
30	0.1208333333333333	477.8940429687501	1111.034301757813	-82.58869934082033	371.0372924804688	1101.5439453125	-91.92785644531251	556.8778686523439	1055.391967773438	-285.1007995605469	321.7001647949219	1034.1748046875	-292.3182678222657	619.7384033203126	789.1607055664065	-263.6006164550782	615.0808105468751	793.9338378906252	-324.1692810058594	602.8517456054689	718.5882568359376	-306.6761474609376	587.3510131835939	723.5338134765626	-362.8652648925782	519.1243286132814	295.2214660644532	-244.3760070800782	518.6312255859376	270.3856506347657	-300.9724121093751	508.970184326172	237.5041961669922	-250.5762176513672	496.3545532226564	216.2503814697266	-305.3559570312501	432.0177612304689	97.68284606933597	-168.4636383056641	401.0950622558595	60.42334747314455	-175.9118804931641	464.9985961914064	61.8640480041504	-167.2992248535157	391.7756652832032	72.7958450317383	-246.4851226806641	492.1846618652345	70.74584960937501	-225.9969940185547	410.0434875488282	89.69338989257814	-301.6486511230469	416.5445556640626	73.28619384765626	-332.6623535156251	465.3982543945314	95.91772460937501	-339.3168334960938	506.5139770507814	44.78203201293946	-266.6536254882813	419.4422912597657	47.44999694824219	-388.269500732422	474.7014160156251	59.19512176513673	-397.7407531738282	531.6901855468751	38.94084167480469	-342.7108764648438	468.3291320800782	42.92923736572266	-456.5999145507814	237.2019500732422	758.2162475585939	-171.3350830078125	239.2572021484376	742.4288330078126	-230.0965576171876	237.1992645263672	673.7586059570314	-186.5512084960938	251.859848022461	658.5384521484376	-243.298812866211	296.7159118652344	580.6525268554689	114.5768280029297	283.2248535156251	532.8816528320314	134.137191772461	298.8238525390626	565.3735351562501	168.7014617919922	300.4026794433594	512.5343627929689	185.3888702392578	377.5315551757813	617.1074829101564	287.7979125976563	356.3903503417969	631.2941284179689	328.6148071289063	412.9527282714845	615.5426635742189	319.7904357910157	385.5980224609376	402.5130920410157	370.1130981445313	293.5148620605469	465.6920166015626	405.8164062500001	
